<?xml version="1.0" encoding="UTF-8"?>
<svg version="1.1" xmlns="http://www.w3.org/2000/svg" width="580" height="580">
<path d="M0 0 C191.4 0 382.8 0 580 0 C580 191.4 580 382.8 580 580 C388.6 580 197.2 580 0 580 C0 388.6 0 197.2 0 0 Z " fill="#DFDFDF" transform="translate(0,0)"/>
<path d="M0 0 C1.10479706 -0.0127597 2.20959412 -0.02551941 3.34786987 -0.03866577 C4.54163239 -0.04089142 5.7353949 -0.04311707 6.96533203 -0.04541016 C8.80564499 -0.05539536 8.80564499 -0.05539536 10.68313599 -0.06558228 C13.28060403 -0.07571582 15.87809815 -0.08039908 18.47558594 -0.08007812 C22.45046919 -0.08444773 26.42423933 -0.12075279 30.39892578 -0.15869141 C32.9210574 -0.16456004 35.44319429 -0.16852912 37.96533203 -0.17041016 C39.15504608 -0.18478119 40.34476013 -0.19915222 41.57052612 -0.21395874 C49.78909693 -0.16844444 49.78909693 -0.16844444 53.79052734 2.1015625 C56.29056735 5.12902856 57.37490795 8.33673469 58.47314453 12.04052734 C58.71436035 12.80751953 58.95557617 13.57451172 59.20410156 14.36474609 C60.02388016 17.00052946 60.8128509 19.64427042 61.59814453 22.29052734 C61.91138672 23.33273438 62.22462891 24.37494141 62.54736328 25.44873047 C64.14789097 30.78487714 65.72944463 36.1265064 67.27783203 41.47802734 C67.53290527 42.35845703 67.78797852 43.23888672 68.05078125 44.14599609 C68.59814453 46.29052734 68.59814453 46.29052734 68.59814453 48.29052734 C70.27015364 48.28499659 70.27015364 48.28499659 71.9759407 48.2793541 C99.0741805 48.1906321 126.1724015 48.1248606 153.27075577 48.08327866 C166.37521775 48.06263646 179.4795839 48.03448412 192.58398438 47.98876953 C204.00320331 47.94895261 215.42235286 47.9231066 226.84163928 47.91417336 C232.89041656 47.90894992 238.93899528 47.89663836 244.98770905 47.86760712 C250.67741374 47.84051942 256.36683752 47.83206894 262.05660057 47.83809662 C264.1480353 47.83699341 266.23947913 47.82900022 268.33085823 47.81370544 C271.18057634 47.79388168 274.02922582 47.7985604 276.87896729 47.80950928 C277.7116517 47.79785791 278.54433611 47.78620655 279.40225339 47.77420211 C283.05682552 47.81230553 285.15568903 47.95506326 288.1125679 50.19693089 C290.66594877 53.79536468 290.11895783 57.04766843 289.59814453 61.29052734 C288.86831692 64.96391937 287.86969194 68.52989547 286.81689453 72.12255859 C286.5275705 73.14465424 286.23824646 74.16674988 285.94015503 75.21981812 C285.00385912 78.5174851 284.0511937 81.81016744 283.09814453 85.10302734 C282.45074931 87.3720084 281.80443124 89.64129707 281.15917969 91.91088867 C279.59409715 97.4066125 278.0165492 102.89864776 276.43371582 108.38928223 C274.93148963 113.60526613 273.44346891 118.82529053 271.95483398 124.04516602 C271.31401936 126.28602512 270.66949208 128.52582681 270.02075195 130.7644043 C268.73488325 135.21135216 267.48393736 139.6512849 266.40673828 144.15380859 C266.23287598 144.86835205 266.05901367 145.58289551 265.87988281 146.3190918 C265.46167121 148.07614626 265.06911908 149.83926307 264.68017578 151.60302734 C263.27690154 155.08841606 261.72904626 156.23777023 258.59814453 158.29052734 C255.54659557 158.78271866 255.54659557 158.78271866 252.07450867 158.77154541 C250.09528664 158.7797934 250.09528664 158.7797934 248.07608032 158.78820801 C246.62078491 158.77405306 245.1654932 158.75951385 243.71020508 158.74462891 C242.1725416 158.7435002 240.63487597 158.74413474 239.09721375 158.74639893 C234.92803204 158.74754612 230.7593111 158.72403626 226.59023643 158.6961031 C222.23139011 158.67109016 217.87253311 158.66874753 213.5136261 158.66400146 C205.26177041 158.65157136 197.01012681 158.61874931 188.7583645 158.57860351 C179.3630522 158.53388686 169.96772974 158.51189903 160.57233751 158.49182177 C141.24748629 158.45001669 121.92283247 158.37966398 102.59814453 158.29052734 C102.81019531 158.88591309 103.02224609 159.48129883 103.24072266 160.09472656 C104.19643701 162.7838547 105.14734601 165.47465739 106.09814453 168.16552734 C106.59894531 169.57125 106.59894531 169.57125 107.10986328 171.00537109 C107.42568359 171.90126953 107.74150391 172.79716797 108.06689453 173.72021484 C108.36015625 174.54763184 108.65341797 175.37504883 108.95556641 176.22753906 C109.59814453 178.29052734 109.59814453 178.29052734 109.59814453 180.29052734 C110.67986278 180.2836139 110.67986278 180.2836139 111.78343391 180.27656078 C129.33543606 180.16610973 146.88734986 180.08338458 164.43962288 180.03146648 C172.92781179 180.0056915 181.41576864 179.97055466 189.90380859 179.91333008 C197.30252961 179.86347326 204.70108255 179.83123119 212.09996688 179.82008487 C216.01723595 179.81356987 219.9340242 179.79827323 223.85113907 179.76187706 C227.53990302 179.72788106 231.22798918 179.71748132 234.91689491 179.72498894 C236.91254455 179.72296242 238.90812073 179.69608602 240.90357971 179.66842651 C250.6865806 179.72471251 250.6865806 179.72471251 254.38717651 182.70100403 C256.99814098 185.75900999 257.5329167 186.59911234 257.91064453 190.60302734 C257.54566484 194.90978776 256.65830925 196.3153672 253.59814453 199.29052734 C250.20974445 201.45025931 247.43893819 201.54577903 243.46292114 201.55795288 C241.57449493 201.57074783 241.57449493 201.57074783 239.6479187 201.58380127 C238.25518786 201.58310226 236.86245712 201.58217921 235.46972656 201.58105469 C234.00105447 201.58703992 232.53238552 201.59384545 231.0637207 201.60140991 C227.07606175 201.61907768 223.08848863 201.62376561 219.10079432 201.62504148 C216.60884235 201.6264632 214.11691221 201.63073317 211.62496567 201.63603592 C202.92965052 201.65453871 194.23439669 201.66270621 185.5390625 201.66113281 C177.4365041 201.65993132 169.33421204 201.68103449 161.23172104 201.71262014 C154.27278044 201.73878024 147.31392683 201.74950022 140.35493743 201.74822199 C136.19974713 201.74771228 132.04479353 201.75340039 127.88965225 201.77457809 C123.98089731 201.79395617 120.07260497 201.79408823 116.16383362 201.77954483 C114.73116759 201.77745507 113.29847264 201.78216769 111.86585617 201.79426575 C98.49608528 201.89983644 98.49608528 201.89983644 93.59814453 197.29052734 C91.11425138 194.80663419 90.93044409 193.13341185 90.16064453 189.72802734 C89.18062018 185.42152032 87.93728885 181.29105482 86.53038025 177.10624695 C84.5589054 171.15161521 82.69814332 165.16088125 80.81689453 159.17724609 C80.59170639 158.46129587 80.36651825 157.74534565 80.13450623 157.00769997 C78.94350814 153.22052863 77.75358058 149.43302275 76.56445312 145.64526367 C75.34702865 141.76821778 74.12560146 137.8924451 72.90328217 134.01694012 C71.95375794 131.00363281 71.00737212 127.98934618 70.06178284 124.97480202 C69.61329762 123.54693579 69.16365549 122.11943232 68.7127533 120.6923275 C66.33619413 113.16689858 64.1362671 105.64272483 62.28297424 97.96936035 C61.4682277 94.78233461 60.46092058 91.69758098 59.38644409 88.59024048 C57.80780353 83.98485869 56.39625424 79.32424608 54.94580078 74.67724609 C54.24463996 72.43700826 53.54346773 70.196774 52.84228516 67.95654297 C51.75152667 64.46812531 50.66113397 60.97959371 49.57104492 57.4909668 C48.50940286 54.09443195 47.44640355 50.69832398 46.38330078 47.30224609 C46.06337662 46.27685226 45.74345245 45.25145844 45.41383362 44.19499207 C43.48168614 38.02461595 41.46155427 31.89434597 39.34007263 25.78620911 C38.59814453 23.29052734 38.59814453 23.29052734 38.59814453 20.29052734 C36.68352417 20.31409302 36.68352417 20.31409302 34.73022461 20.33813477 C29.98728769 20.39250115 25.24437824 20.42690197 20.5012207 20.45532227 C18.44974127 20.47039357 16.39829397 20.49085416 14.34692383 20.5168457 C11.39542705 20.55330158 8.4443569 20.57027041 5.49267578 20.58349609 C4.12052666 20.60672188 4.12052666 20.60672188 2.72065735 20.63041687 C-2.14726206 20.6316987 -5.46113681 20.49141196 -9.40185547 17.29052734 C-11.73011922 14.07530597 -11.79896728 11.1822231 -11.40185547 7.29052734 C-8.7486644 1.73146034 -6.07972802 0.04763109 0 0 Z " fill="#040404" transform="translate(126.40185546875,166.70947265625)"/>
<path d="M0 0 C2.475 0.495 2.475 0.495 5 1 C5.33951619 2.56116819 5.67132544 4.12401338 6 5.6875 C6.185625 6.55761719 6.37125 7.42773438 6.5625 8.32421875 C6.99035038 10.94098224 7.0310028 13.35507362 7 16 C7.91289795 15.97381592 8.8257959 15.94763184 9.76635742 15.9206543 C13.16772344 15.83521458 16.56794258 15.77265001 19.9699707 15.7253418 C21.43955525 15.70026356 22.90901587 15.66619144 24.37817383 15.62280273 C26.49591681 15.56184501 28.61200576 15.53372684 30.73046875 15.51171875 C32.00301514 15.48553467 33.27556152 15.45935059 34.58666992 15.43237305 C38.90023874 16.14970711 39.97761986 17.96109122 43 21 C46.46504717 21.77419007 46.46504717 21.77419007 50.26953125 21.70703125 C51.29103523 21.72971321 51.29103523 21.72971321 52.33317566 21.75285339 C54.49329063 21.79560078 56.65200493 21.80455435 58.8125 21.8125 C60.28324002 21.83565489 61.75394698 21.86102231 63.22460938 21.88867188 C66.81716091 21.95553832 70.40585456 21.97661999 74 22 C73.67 27.94 73.34 33.88 73 40 C75.0745356 41.2236068 75.0745356 41.2236068 78 41 C78.06058594 40.13117188 78.12117187 39.26234375 78.18359375 38.3671875 C78.26738281 37.21476562 78.35117187 36.06234375 78.4375 34.875 C78.55931641 33.16957031 78.55931641 33.16957031 78.68359375 31.4296875 C78.97514671 28.26939737 79.47824525 25.13052852 80 22 C89.9 22 99.8 22 110 22 C110.33 24.31 110.66 26.62 111 29 C113.03241727 28.36020151 113.03241727 28.36020151 115 27 C115.33 25.35 115.66 23.7 116 22 C121.61 22 127.22 22 133 22 C132.10200371 28.28597404 131.00443382 33.98669855 129 40 C128.08476562 40.02578125 127.16953125 40.0515625 126.2265625 40.078125 C124.44378906 40.16320312 124.44378906 40.16320312 122.625 40.25 C121.44164062 40.29640625 120.25828125 40.3428125 119.0390625 40.390625 C118.03617188 40.59171875 117.03328125 40.7928125 116 41 C115.34 42.32 114.68 43.64 114 45 C118.29 45 122.58 45 127 45 C126.06061563 50.63630622 124.5933864 55.66382204 122.83984375 61.07421875 C121.86204632 63.9732698 121.86204632 63.9732698 122 67 C120.78748488 71.0435214 119.37387526 75.00717503 118 79 C112.72 79 107.44 79 102 79 C101.67 77.35 101.34 75.7 101 74 C98.525 74.99 98.525 74.99 96 76 C96 76.99 96 77.98 96 79 C88.74 79 81.48 79 74 79 C73.67 79.66 73.34 80.32 73 81 C72.67 80.01 72.34 79.02 72 78 C63.09 78 54.18 78 45 78 C45 77.34 45 76.68 45 76 C44.31067383 76.32669678 43.62134766 76.65339355 42.91113281 76.98999023 C39.55960797 78.15279284 36.96400293 78.21245243 33.421875 78.16015625 C32.17921875 78.14919922 30.9365625 78.13824219 29.65625 78.12695312 C27.72265625 78.09504883 27.72265625 78.09504883 25.75 78.0625 C23.18234548 78.02824769 20.61463225 77.99806635 18.046875 77.97265625 C16.91088867 77.95468994 15.77490234 77.93672363 14.60449219 77.91821289 C12.07150752 77.7003043 12.07150752 77.7003043 11 79 C9.36527118 79.08700342 7.72685945 79.10701063 6.08984375 79.09765625 C5.10048828 79.09443359 4.11113281 79.09121094 3.09179688 79.08789062 C2.05087891 79.07951172 1.00996094 79.07113281 -0.0625 79.0625 C-1.10728516 79.05798828 -2.15207031 79.05347656 -3.22851562 79.04882812 C-5.8190666 79.03699913 -8.40950559 79.02051689 -11 79 C-11.33 78.01 -11.66 77.02 -12 76 C-15.00847418 74.77479736 -15.00847418 74.77479736 -18 74 C-18 75.32 -18 76.64 -18 78 C-23.61 78 -29.22 78 -35 78 C-35.66 74.7 -36.32 71.4 -37 68 C-35.86111328 67.94392578 -35.86111328 67.94392578 -34.69921875 67.88671875 C-33.70535156 67.82097656 -32.71148437 67.75523437 -31.6875 67.6875 C-30.70136719 67.62949219 -29.71523437 67.57148438 -28.69921875 67.51171875 C-25.62903959 67.1920644 -25.62903959 67.1920644 -23 64 C-28.28 63.67 -33.56 63.34 -39 63 C-39.825 60.586875 -40.65 58.17375 -41.5 55.6875 C-41.76103516 54.93170654 -42.02207031 54.17591309 -42.29101562 53.3972168 C-43.27717698 50.47512677 -44 48.10385594 -44 45 C-38.72 45 -33.44 45 -28 45 C-28.33 43.68 -28.66 42.36 -29 41 C-30.32 41.66 -31.64 42.32 -33 43 C-32.67 42.34 -32.34 41.68 -32 41 C-37.28 40.67 -42.56 40.34 -48 40 C-48.103125 38.68 -48.20625 37.36 -48.3125 36 C-48.9152248 30.54964571 -50.00951419 24.99048581 -54 21 C-53.34 21 -52.68 21 -52 21 C-51.67 20.01 -51.34 19.02 -51 18 C-51.99 17.34 -52.98 16.68 -54 16 C-54.86083573 13.43764614 -55.56673259 10.99333415 -56.1875 8.375 C-56.36474609 7.66859375 -56.54199219 6.9621875 -56.72460938 6.234375 C-57.16016404 4.49215636 -57.58146251 2.74638484 -58 1 C-55.24940619 0.91892354 -52.50120979 0.85947187 -49.75 0.8125 C-48.97269531 0.78736328 -48.19539062 0.76222656 -47.39453125 0.73632812 C-41.57002825 0.66165501 -41.57002825 0.66165501 -38.453125 2.51171875 C-37.97359375 3.00285156 -37.4940625 3.49398437 -37 4 C-36.67 3.01 -36.34 2.02 -36 1 C-31.19450253 0.97531553 -26.38904182 0.95714745 -21.58349609 0.94506836 C-19.94807289 0.94003379 -18.3126542 0.93320573 -16.67724609 0.92456055 C-14.32909025 0.91245665 -11.98099381 0.906763 -9.6328125 0.90234375 C-8.89942657 0.89718246 -8.16604065 0.89202118 -7.41043091 0.88670349 C-2.22774341 0.88612829 -2.22774341 0.88612829 0 2 C0 1.34 0 0.68 0 0 Z " fill="#0A0A0A" transform="translate(258,230)"/>
<path d="M0 0 C9.9 0 19.8 0 30 0 C30.495 3.465 30.495 3.465 31 7 C33.03241727 6.36020151 33.03241727 6.36020151 35 5 C35.33 3.35 35.66 1.7 36 0 C41.61 0 47.22 0 53 0 C52.10200371 6.28597404 51.00443382 11.98669855 49 18 C48.08476562 18.02578125 47.16953125 18.0515625 46.2265625 18.078125 C44.44378906 18.16320312 44.44378906 18.16320312 42.625 18.25 C40.84996094 18.31960938 40.84996094 18.31960938 39.0390625 18.390625 C38.03617187 18.59171875 37.03328125 18.7928125 36 19 C35.34 20.32 34.68 21.64 34 23 C38.29 23 42.58 23 47 23 C46.06061563 28.63630622 44.5933864 33.66382204 42.83984375 39.07421875 C41.86204632 41.9732698 41.86204632 41.9732698 42 45 C40.78748488 49.0435214 39.37387526 53.00717503 38 57 C32.72 57 27.44 57 22 57 C21.67 55.35 21.34 53.7 21 52 C19.35 52.66 17.7 53.32 16 54 C16 54.99 16 55.98 16 57 C8.74 57 1.48 57 -6 57 C-6.33 57.66 -6.66 58.32 -7 59 C-7.33 58.01 -7.66 57.02 -8 56 C-16.58 56 -25.16 56 -34 56 C-34 52.7 -34 49.4 -34 46 C-32.74703125 45.96261719 -31.4940625 45.92523438 -30.203125 45.88671875 C-28.55205379 45.82105115 -26.90101345 45.75460407 -25.25 45.6875 C-24.0125 45.65366211 -24.0125 45.65366211 -22.75 45.61914062 C-21.95078125 45.58369141 -21.1515625 45.54824219 -20.328125 45.51171875 C-19.5949707 45.48553467 -18.86181641 45.45935059 -18.10644531 45.43237305 C-15.47040089 45.04747803 -15.47040089 45.04747803 -12 42 C-23.385 41.505 -23.385 41.505 -35 41 C-35 35.06 -35 29.12 -35 23 C-26.09 23 -17.18 23 -8 23 C-8 26.63 -8 30.26 -8 34 C-7.67 35.32 -7.34 36.64 -7 38 C-6.34 38 -5.68 38 -5 38 C-4.66408104 35.72954771 -4.33134935 33.45862367 -4 31.1875 C-3.814375 29.92292969 -3.62875 28.65835937 -3.4375 27.35546875 C-2.93535508 24.06817492 -2.93535508 24.06817492 -3 21 C-2.80191727 19.36845154 -2.58031929 17.73969513 -2.34375 16.11328125 C-2.22193359 15.26805908 -2.10011719 14.42283691 -1.97460938 13.55200195 C-1.81798828 12.48296631 -1.66136719 11.41393066 -1.5 10.3125 C-1.005 6.909375 -0.51 3.50625 0 0 Z " fill="#1A1A1A" transform="translate(338,252)"/>
<path d="M0 0 C5.28 0 10.56 0 16 0 C17.2375 3.650625 17.2375 3.650625 18.5 7.375 C18.89155273 8.52234619 18.89155273 8.52234619 19.29101562 9.69287109 C21 14.77777778 21 14.77777778 21 17 C22.32 17 23.64 17 25 17 C25.22949357 10.68892692 24.43118322 6.4403245 23 0 C31.91 0 40.82 0 50 0 C50.495 2.475 50.495 2.475 51 5 C51.66 5.33 52.32 5.66 53 6 C53 6.99 53 7.98 53 9 C53.66 9 54.32 9 55 9 C55 6.03 55 3.06 55 0 C64.24 0 73.48 0 83 0 C83 5.94 83 11.88 83 18 C76.07 18 69.14 18 62 18 C61.34 19.32 60.68 20.64 60 22 C67.59 22.33 75.18 22.66 83 23 C83 26.3 83 29.6 83 33 C82.18732666 32.99476318 81.37465332 32.98952637 80.53735352 32.98413086 C76.87907678 32.96343006 73.22081233 32.95036197 69.5625 32.9375 C68.28310547 32.92912109 67.00371094 32.92074219 65.68554688 32.91210938 C64.47060547 32.90888672 63.25566406 32.90566406 62.00390625 32.90234375 C60.87799072 32.89710693 59.7520752 32.89187012 58.59204102 32.88647461 C56.07029129 32.70454552 56.07029129 32.70454552 55 34 C53.36527118 34.08700342 51.72685945 34.10701063 50.08984375 34.09765625 C49.10048828 34.09443359 48.11113281 34.09121094 47.09179688 34.08789062 C46.05087891 34.07951172 45.00996094 34.07113281 43.9375 34.0625 C42.89271484 34.05798828 41.84792969 34.05347656 40.77148438 34.04882812 C38.1809334 34.03699913 35.59049441 34.02051689 33 34 C32.67 33.01 32.34 32.02 32 31 C28.99152582 29.77479736 28.99152582 29.77479736 26 29 C26 30.32 26 31.64 26 33 C20.39 33 14.78 33 9 33 C8.34 29.7 7.68 26.4 7 23 C7.75925781 22.96261719 8.51851562 22.92523438 9.30078125 22.88671875 C10.29464844 22.82097656 11.28851563 22.75523437 12.3125 22.6875 C13.29863281 22.62949219 14.28476563 22.57148438 15.30078125 22.51171875 C18.37096041 22.1920644 18.37096041 22.1920644 21 19 C15.72 18.67 10.44 18.34 5 18 C3.7625 14.3803125 3.7625 14.3803125 2.5 10.6875 C2.23896484 9.93170654 1.97792969 9.17591309 1.70898438 8.3972168 C0.72282302 5.47512677 0 3.10385594 0 0 Z " fill="#363636" transform="translate(214,275)"/>
<path d="M0 0 C2.75059381 -0.08107646 5.49879021 -0.14052813 8.25 -0.1875 C9.02730469 -0.21263672 9.80460938 -0.23777344 10.60546875 -0.26367188 C16.42997175 -0.33834499 16.42997175 -0.33834499 19.546875 1.51171875 C20.02640625 2.00285156 20.5059375 2.49398437 21 3 C21.33 2.01 21.66 1.02 22 0 C33.22 0 44.44 0 56 0 C58 7 58 7 58 15 C44.635 15.495 44.635 15.495 31 16 C31 16.99 31 17.98 31 19 C31 19.33 31 19.66 31 20 C40.57 20.33 50.14 20.66 60 21 C62.25 33.375 62.25 33.375 62 39 C61.32420898 39.0093457 60.64841797 39.01869141 59.95214844 39.02832031 C56.8840289 39.08207301 53.81742613 39.16570992 50.75 39.25 C49.68652344 39.26417969 48.62304688 39.27835937 47.52734375 39.29296875 C46.50253906 39.32519531 45.47773438 39.35742188 44.421875 39.390625 C43.47924805 39.41157227 42.53662109 39.43251953 41.56542969 39.45410156 C38.32606715 40.14340634 37.18998623 41.59448751 35 44 C34.34 44 33.68 44 33 44 C32.505 44.99 32.505 44.99 32 46 C31.01 44.02 30.02 42.04 29 40 C27.68 40.66 26.36 41.32 25 42 C25.33 41.34 25.66 40.68 26 40 C20.72 39.67 15.44 39.34 10 39 C9.896875 37.68 9.79375 36.36 9.6875 35 C9.0847752 29.54964571 7.99048581 23.99048581 4 20 C4.66 20 5.32 20 6 20 C6.33 19.01 6.66 18.02 7 17 C6.01 16.34 5.02 15.68 4 15 C3.13916427 12.43764614 2.43326741 9.99333415 1.8125 7.375 C1.63525391 6.66859375 1.45800781 5.9621875 1.27539062 5.234375 C0.83983596 3.49215636 0.41853749 1.74638484 0 0 Z " fill="#040404" transform="translate(200,231)"/>
<path d="M0 0 C4.46841196 2.63382006 7.70391011 5.68131003 9.75 10.5 C10.7328014 16.19759189 11.05114969 21.75173831 8.53125 27.07421875 C5.39215016 31.40649684 1.88347515 34.78884162 -3.25 36.5 C-8.70859575 36.98048245 -13.59555033 37.26594892 -18.625 34.9375 C-27.7759318 26.44020619 -27.7759318 26.44020619 -28.48828125 20.51953125 C-28.68611955 14.63644484 -27.72907772 10.31407266 -24.25 5.5 C-17.5439633 -1.51085656 -9.27562419 -4.05696858 0 0 Z " fill="#0E0E0E" transform="translate(377.25,375.5)"/>
<path d="M0 0 C4.65946201 2.79392553 8.18269819 6.14274012 10.640625 11.05859375 C11.61185052 24.58104131 11.61185052 24.58104131 7.640625 30.05859375 C3.96115763 34.20978771 1.19746685 36.77450021 -4.3828125 37.39453125 C-15.65691469 37.52593104 -15.65691469 37.52593104 -20.359375 33.05859375 C-26.0956233 27.03946197 -26.71803832 22.36755513 -26.63671875 14.2265625 C-26.14487265 8.60843307 -23.31865187 5.80651966 -19.296875 2.24609375 C-13.81078887 -1.83928954 -6.40738156 -2.55658768 0 0 Z " fill="#0C0C0C" transform="translate(238.359375,374.94140625)"/>
<path d="M0 0 C9.24 0 18.48 0 28 0 C28 5.94 28 11.88 28 18 C21.07 18 14.14 18 7 18 C6.34 19.32 5.68 20.64 5 22 C12.59 22.33 20.18 22.66 28 23 C28 26.3 28 29.6 28 33 C27.18732666 32.99476318 26.37465332 32.98952637 25.53735352 32.98413086 C21.87907678 32.96343006 18.22081233 32.95036197 14.5625 32.9375 C13.28310547 32.92912109 12.00371094 32.92074219 10.68554688 32.91210938 C9.47060547 32.90888672 8.25566406 32.90566406 7.00390625 32.90234375 C5.87799072 32.89710693 4.7520752 32.89187012 3.59204102 32.88647461 C1.07029129 32.70454552 1.07029129 32.70454552 0 34 C-1.63472882 34.08700342 -3.27314055 34.10701063 -4.91015625 34.09765625 C-5.89951172 34.09443359 -6.88886719 34.09121094 -7.90820312 34.08789062 C-8.94912109 34.07951172 -9.99003906 34.07113281 -11.0625 34.0625 C-12.10728516 34.05798828 -13.15207031 34.05347656 -14.22851562 34.04882812 C-16.8190666 34.03699913 -19.40950559 34.02051689 -22 34 C-22 33.67 -22 33.34 -22 33 C-15.07 33 -8.14 33 -1 33 C-1.495 28.05 -1.495 28.05 -2 23 C-9.92 23 -17.84 23 -26 23 C-26.66 21.68 -27.32 20.36 -28 19 C-27 18 -27 18 -24.68334961 17.88647461 C-23.68311768 17.89171143 -22.68288574 17.89694824 -21.65234375 17.90234375 C-20.57275391 17.90556641 -19.49316406 17.90878906 -18.38085938 17.91210938 C-16.67639648 17.92467773 -16.67639648 17.92467773 -14.9375 17.9375 C-13.22723633 17.94426758 -13.22723633 17.94426758 -11.48242188 17.95117188 C-8.65492582 17.9630024 -5.82745655 17.9809385 -3 18 C-3.66 13.71 -4.32 9.42 -5 5 C-4.01 5.33 -3.02 5.66 -2 6 C-2 6.99 -2 7.98 -2 9 C-1.34 9 -0.68 9 0 9 C0 6.03 0 3.06 0 0 Z " fill="#1F1F1F" transform="translate(269,275)"/>
<path d="M0 0 C1.4530896 0.09082808 2.90215464 0.24750556 4.34642029 0.43139648 C10.06848791 1.06278656 15.70533371 1.12690776 21.45727539 1.09765625 C22.55618607 1.09619598 23.65509674 1.09473572 24.78730774 1.0932312 C27.1563926 1.08944659 29.52547469 1.08335293 31.89454842 1.07516479 C35.64897859 1.06232448 39.40337316 1.05586613 43.15782166 1.05102539 C51.12606393 1.0396351 59.09427736 1.02044325 67.0625 1 C76.30390981 0.97629775 85.54530657 0.95598252 94.78674126 0.94406128 C98.47642675 0.9376028 102.16605981 0.92509661 105.85572815 0.91235352 C108.12785802 0.90871938 110.39998837 0.90536785 112.67211914 0.90234375 C113.6900354 0.89717743 114.70795166 0.89201111 115.75671387 0.88668823 C121.58779531 0.88625876 127.21642525 1.24670843 133 2 C133 2.99 133 3.98 133 5 C126.0047717 8.49761415 115.69184591 7.16103425 108.08251953 7.17700195 C106.69691299 7.18327933 105.31130809 7.18992722 103.92570496 7.19691467 C99.41141901 7.21777542 94.89713334 7.22828799 90.3828125 7.23828125 C88.8236273 7.2423331 87.26444227 7.24645015 85.70525742 7.25063133 C78.38982856 7.26962951 71.07440956 7.28388151 63.75896084 7.2922433 C55.32180804 7.30204893 46.88491524 7.32847677 38.44785416 7.36874419 C31.91519353 7.39885312 25.38260784 7.41370647 18.84987915 7.41702431 C14.95137737 7.41937724 11.05315518 7.42837172 7.15472794 7.45348549 C3.49544362 7.47668551 -0.16337518 7.48103259 -3.82271385 7.47072411 C-5.8080734 7.4699895 -7.79340893 7.48912864 -9.77867126 7.50878906 C-10.95618454 7.50184525 -12.13369781 7.49490143 -13.34689331 7.48774719 C-14.88488492 7.49132972 -14.88488492 7.49132972 -16.45394707 7.49498463 C-19 7 -19 7 -20.85331917 4.9695158 C-21.23172384 4.31957559 -21.61012852 3.66963537 -22 3 C-21.34 2.34 -20.68 1.68 -20 1 C-19.01 1.33 -18.02 1.66 -17 2 C-14.27287372 1.93763329 -11.59268151 1.81604967 -8.875 1.625 C-8.13378906 1.58117187 -7.39257812 1.53734375 -6.62890625 1.4921875 C-3.01097547 1.56146735 -3.01097547 1.56146735 0 0 Z " fill="#C9C9C9" transform="translate(238,410)"/>
<path d="M0 0 C9.9 0 19.8 0 30 0 C29.67 5.61 29.34 11.22 29 17 C19.43 17 9.86 17 0 17 C0 11.39 0 5.78 0 0 Z " fill="#F1F1F1" transform="translate(302,252)"/>
<path d="M0 0 C9.9 0 19.8 0 30 0 C32 11 32 11 32 17 C23.09 17 14.18 17 5 17 C1 6 1 6 0 0 Z " fill="#F6F6F6" transform="translate(230,252)"/>
<path d="M0 0 C9.9 0 19.8 0 30 0 C28.68 5.61 27.36 11.22 26 17 C16.76 17 7.52 17 -2 17 C-1.34 11.39 -0.68 5.78 0 0 Z " fill="#F3F3F3" transform="translate(338,252)"/>
<path d="M0 0 C3.85852527 3.29109509 4.99871965 5.67597688 5.5625 10.75 C5.39339443 15.00984994 3.91360181 17.55913122 1.125 20.8125 C-3.07819552 23.38014245 -7.07388755 23.49480714 -11.875 22.8125 C-15.03189734 21.20535226 -17.06915756 19.83811766 -19.25 17.0625 C-20.53968814 12.41962268 -20.53950886 8.38633678 -18.6875 4 C-13.73396258 -1.97840723 -7.04447949 -2.90967631 0 0 Z " fill="#F0F0F0" transform="translate(237.875,382.1875)"/>
<path d="M0 0 C9.9 0 19.8 0 30 0 C30 5.61 30 11.22 30 17 C21.09 17 12.18 17 3 17 C0 3.375 0 3.375 0 0 Z " fill="#F8F8F8" transform="translate(266,252)"/>
<path d="M0 0 C3.16749936 1.68085061 5.2985848 4.01164222 7.375 6.9375 C8.25688519 9.84772112 8.36405994 11.96616714 8 15 C5.93504958 18.76115969 3.91274408 22.09650288 0 24 C-4.26556888 24.57729504 -7.85254726 24.44900325 -11.875 22.875 C-15.60192572 19.58653613 -16.82720532 16.38235744 -17.4375 11.5 C-16.91180972 7.29447778 -15.70608664 5.23227016 -13 2 C-8.8184659 -0.55440995 -4.77800732 -0.81979675 0 0 Z " fill="#EDEDED" transform="translate(373,381)"/>
<path d="M0 0 C10.89 0 21.78 0 33 0 C32 11 32 11 31 15 C20.77 15 10.54 15 0 15 C0 10.05 0 5.1 0 0 Z " fill="#F5F5F5" transform="translate(302,231)"/>
<path d="M0 0 C10.89 0 21.78 0 33 0 C33 4.95 33 9.9 33 15 C22.77 15 12.54 15 2 15 C0 4 0 4 0 0 Z " fill="#F8F8F8" transform="translate(263,231)"/>
<path d="M0 0 C10.89 0 21.78 0 33 0 C35 7 35 7 35 15 C24.77 15 14.54 15 4 15 C2.68 10.05 1.36 5.1 0 0 Z " fill="#F8F8F8" transform="translate(223,231)"/>
<path d="M0 0 C10.56 0 21.12 0 32 0 C31 7 31 7 29 15 C19.1 15 9.2 15 -1 15 C-1 3 -1 3 0 0 Z " fill="#F8F8F8" transform="translate(341,231)"/>
<path d="M0 0 C8.91 0 17.82 0 27 0 C26 11 26 11 24 18 C16.08 18 8.16 18 0 18 C0 12.06 0 6.12 0 0 Z " fill="#E8E8E8" transform="translate(303,275)"/>
<path d="M0 0 C8.91 0 17.82 0 27 0 C28 7 28 7 28 17 C20.41 17 12.82 17 5 17 C2 9 2 9 0 0 Z " fill="#F3F3F3" transform="translate(237,275)"/>
<path d="M0 0 C8.58 0 17.16 0 26 0 C27 5 27 5 27 16 C19.08 16 11.16 16 3 16 C1 7 1 7 0 0 Z " fill="#FBFBFB" transform="translate(270,276)"/>
<path d="M0 0 C8.58 0 17.16 0 26 0 C24.125 12.625 24.125 12.625 23 16 C15.41 16 7.82 16 0 16 C0 10.72 0 5.44 0 0 Z " fill="#FAFAFA" transform="translate(335,276)"/>
<path d="M0 0 C3.89408383 0.00529284 7.78804889 0.00006601 11.68212891 -0.00634766 C29.08684306 -0.01047336 46.43825016 0.41140161 63.82666016 1.13037109 C63.49666016 2.12037109 63.16666016 3.11037109 62.82666016 4.13037109 C52.21983944 4.15373904 41.61302503 4.17140895 31.00618362 4.18218327 C26.07882007 4.18735937 21.15147437 4.19435878 16.22412109 4.20581055 C11.45191019 4.21682989 6.67971625 4.2226874 1.90749359 4.22524834 C0.10423262 4.22706883 -1.69902763 4.23062175 -3.50228119 4.23610115 C-16.09107925 4.27276495 -28.60607086 3.86963146 -41.17333984 3.13037109 C-40.84333984 2.47037109 -40.51333984 1.81037109 -40.17333984 1.13037109 C-27.16651859 -1.13227104 -13.13494606 -0.02114604 0 0 Z " fill="#A2A2A2" transform="translate(289.17333984375,411.86962890625)"/>
<path d="M0 0 C5.28 0 10.56 0 16 0 C15.318714 4.08771598 14.58498651 7.84687429 13.5 11.8125 C13.2421875 12.76769531 12.984375 13.72289062 12.71875 14.70703125 C12 17 12 17 11 18 C8.30345146 18.07319621 5.63308542 18.09242537 2.9375 18.0625 C2.17888672 18.05798828 1.42027344 18.05347656 0.63867188 18.04882812 C-1.24091871 18.0370068 -3.12046899 18.01907078 -5 18 C-3.9007105 11.68878497 -2.41862058 5.93661416 0 0 Z " fill="#FAFAFA" transform="translate(369,275)"/>
<path d="M0 0 C5.61 0 11.22 0 17 0 C15.2 12.6 15.2 12.6 13 17 C7.72 17 2.44 17 -3 17 C-2.43494693 10.97276728 -1.49994998 5.99979992 0 0 Z " fill="#F0F0F0" transform="translate(374,252)"/>
<path d="M0 0 C5.28 0 10.56 0 16 0 C17.2375 3.650625 17.2375 3.650625 18.5 7.375 C18.89155273 8.52234619 18.89155273 8.52234619 19.29101562 9.69287109 C21 14.77777778 21 14.77777778 21 17 C15.72 17 10.44 17 5 17 C4.175 14.751875 3.35 12.50375 2.5 10.1875 C2.23896484 9.48391357 1.97792969 8.78032715 1.70898438 8.05541992 C0.68412514 5.22363626 0 3.03435748 0 0 Z " fill="#F5F5F5" transform="translate(207,252)"/>
<path d="M0 0 C5.28 0 10.56 0 16 0 C20 11.375 20 11.375 20 17 C15.05 17 10.1 17 5 17 C4.175 14.751875 3.35 12.50375 2.5 10.1875 C2.23896484 9.48391357 1.97792969 8.78032715 1.70898438 8.05541992 C0.68412514 5.22363626 0 3.03435748 0 0 Z " fill="#F1F1F1" transform="translate(214,275)"/>
<path d="M0 0 C5.61 0 11.22 0 17 0 C16.01 4.95 15.02 9.9 14 15 C8.39 15 2.78 15 -3 15 C-2.49241226 9.41653484 -1.80998106 5.42994317 0 0 Z " fill="#F5F5F5" transform="translate(380,231)"/>
<path d="M0 0 C5.61 0 11.22 0 17 0 C21 11.625 21 11.625 21 15 C15.39 15 9.78 15 4 15 C2.68 10.05 1.36 5.1 0 0 Z " fill="#F5F5F5" transform="translate(200,231)"/>
<path d="M0 0 C42.24 0 84.48 0 128 0 C128 0.33 128 0.66 128 1 C72.065 1.495 72.065 1.495 15 2 C15.33 3.32 15.66 4.64 16 6 C12.58860997 7.09651823 9.79344419 6.94215473 6.25 6.5625 C5.26515625 6.46066406 4.2803125 6.35882813 3.265625 6.25390625 C2.51796875 6.17011719 1.7703125 6.08632813 1 6 C0.67 4.02 0.34 2.04 0 0 Z " fill="#E6E6E6" transform="translate(224,368)"/>
<path d="M0 0 C7.59 0 15.18 0 23 0 C22.34 2.97 21.68 5.94 21 9 C13.74 9 6.48 9 -1 9 C-0.67 6.03 -0.34 3.06 0 0 Z " fill="#F8F8F8" transform="translate(333,299)"/>
<path d="M0 0 C7.59 0 15.18 0 23 0 C24 2 24 2 24 9 C16.74 9 9.48 9 2 9 C1.34 6.03 0.68 3.06 0 0 Z " fill="#F9F9F9" transform="translate(244,299)"/>
<path d="M0 0 C7.59 0 15.18 0 23 0 C23 2.97 23 5.94 23 9 C15.74 9 8.48 9 1 9 C0.67 6.03 0.34 3.06 0 0 Z " fill="#FAFAFA" transform="translate(274,299)"/>
<path d="M0 0 C7.26 0 14.52 0 22 0 C22 2.97 22 5.94 22 9 C14.74 9 7.48 9 0 9 C0 6.03 0 3.06 0 0 Z " fill="#FBFBFB" transform="translate(304,299)"/>
<path d="M0 0 C0.66 0.33 1.32 0.66 2 1 C2.625 4.0625 2.625 4.0625 3 7 C3.99 7.33 4.98 7.66 6 8 C6.99 7.01 7.98 6.02 9 5 C9.99 8.63 10.98 12.26 12 16 C20.91 16 29.82 16 39 16 C39 16.33 39 16.66 39 17 C38.32420898 17.0093457 37.64841797 17.01869141 36.95214844 17.02832031 C33.8840289 17.08207301 30.81742613 17.16570992 27.75 17.25 C26.68652344 17.26417969 25.62304688 17.27835937 24.52734375 17.29296875 C23.50253906 17.32519531 22.47773438 17.35742188 21.421875 17.390625 C20.47924805 17.41157227 19.53662109 17.43251953 18.56542969 17.45410156 C15.32606715 18.14340634 14.18998623 19.59448751 12 22 C11.34 22 10.68 22 10 22 C9.67 22.66 9.34 23.32 9 24 C8.01 22.02 7.02 20.04 6 18 C4.02 18.99 4.02 18.99 2 20 C2.33 19.34 2.66 18.68 3 18 C-2.28 17.67 -7.56 17.34 -13 17 C-12.505 15.515 -12.505 15.515 -12 14 C-11.67 14.66 -11.34 15.32 -11 16 C-5.72 16 -0.44 16 5 16 C3.35798731 11.48139047 3.35798731 11.48139047 1.70898438 6.96533203 C0 2.22222222 0 2.22222222 0 0 Z " fill="#242424" transform="translate(223,253)"/>
<path d="M0 0 C2 1.6875 2 1.6875 3 4 C2.92974155 7.44266385 2.60090824 9.28353249 0.375 11.9375 C-3.11319754 13.49800943 -5.36432898 12.99154664 -9 12 C-11 10.3125 -11 10.3125 -12 8 C-11.92974155 4.55733615 -11.60090824 2.71646751 -9.375 0.0625 C-5.88680246 -1.49800943 -3.63567102 -0.99154664 0 0 Z " fill="#0D0D0D" transform="translate(235,387)"/>
<path d="M0 0 C3.02169041 2.57732417 4.79150524 4.77086135 5.4453125 8.7734375 C5.6512558 12.46668736 5.456465 14.39816876 3.125 17.3125 C2.465 17.8075 1.805 18.3025 1.125 18.8125 C1.125 15.8125 1.125 15.8125 2.1875 13.25 C2.496875 12.445625 2.80625 11.64125 3.125 10.8125 C2.795 10.1525 2.465 9.4925 2.125 8.8125 C1.135 8.8125 0.145 8.8125 -0.875 8.8125 C-1.4525 8.131875 -2.03 7.45125 -2.625 6.75 C-4.82350034 4.40484256 -4.82350034 4.40484256 -8.375 5 C-10.88222475 5.58203432 -13.38373376 6.16661616 -15.875 6.8125 C-16.535 6.8125 -17.195 6.8125 -17.875 6.8125 C-17.545 7.8025 -17.215 8.7925 -16.875 9.8125 C-17.8125 12.5 -17.8125 12.5 -18.875 14.8125 C-19.205 14.8125 -19.535 14.8125 -19.875 14.8125 C-20.32433921 5.97549559 -20.32433921 5.97549559 -16.875 1.8125 C-11.97720237 -2.36503327 -5.7722246 -2.38417972 0 0 Z " fill="#F2F2F2" transform="translate(237.875,382.1875)"/>
<path d="M0 0 C2.375 1.625 2.375 1.625 4 4 C4.60975382 7.65852292 4.44543026 9.30512879 2.4375 12.4375 C0 14 0 14 -3.75 13.75 C-5.35875 13.37875 -5.35875 13.37875 -7 13 C-7 12.34 -7 11.68 -7 11 C-7.99 10.67 -8.98 10.34 -10 10 C-10.32152515 6.46322336 -10.4131192 4.6037896 -8.375 1.625 C-5.28813568 -0.48706506 -3.6717087 -0.61195145 0 0 Z " fill="#141414" transform="translate(371,386)"/>
<path d="M0 0 C5.61 0 11.22 0 17 0 C17.66 2.97 18.32 5.94 19 9 C13.39 9 7.78 9 2 9 C1.34 6.03 0.68 3.06 0 0 Z " fill="#F3F3F3" transform="translate(221,299)"/>
<path d="M0 0 C5.28 0 10.56 0 16 0 C15 7 15 7 14 9 C9.05 9 4.1 9 -1 9 C-0.67 6.03 -0.34 3.06 0 0 Z " fill="#F4F4F4" transform="translate(362,299)"/>
<path d="M0 0 C9.24 0 18.48 0 28 0 C28 3 28 3 27 5 C17.76 5 8.52 5 -1 5 C-0.67 3.35 -0.34 1.7 0 0 Z " fill="#010101" transform="translate(231,247)"/>
<path d="M0 0 C1.96903179 0.21096769 3.93738369 0.42976186 5.90234375 0.67578125 C9.94993385 1.09942561 13.99984227 1.33389115 18.0625 1.5625 C18.83722656 1.60616699 19.61195313 1.64983398 20.41015625 1.69482422 C22.27333664 1.79838045 24.13665485 1.8994521 26 2 C26 2.33 26 2.66 26 3 C21.05 3.33 16.1 3.66 11 4 C17.27 4.33 23.54 4.66 30 5 C30 5.33 30 5.66 30 6 C16.47 6 2.94 6 -11 6 C-11 5.34 -11 4.68 -11 4 C-11.66 4 -12.32 4 -13 4 C-13.33 4.66 -13.66 5.32 -14 6 C-15.32 5.34 -16.64 4.68 -18 4 C-12.98687921 2.3652867 -8.29821158 1.63536611 -3.0390625 1.24609375 C-1.00804547 1.21380776 -1.00804547 1.21380776 0 0 Z " fill="#C0C0C0" transform="translate(238,410)"/>
<path d="M0 0 C1.16015625 0.00322266 2.3203125 0.00644531 3.515625 0.00976562 C5.32546875 0.02233398 5.32546875 0.02233398 7.171875 0.03515625 C9.00492187 0.04192383 9.00492187 0.04192383 10.875 0.04882812 C13.89067446 0.0606081 16.90624998 0.07705772 19.921875 0.09765625 C19.921875 0.42765625 19.921875 0.75765625 19.921875 1.09765625 C12.331875 1.09765625 4.741875 1.09765625 -3.078125 1.09765625 C-2.748125 4.06765625 -2.418125 7.03765625 -2.078125 10.09765625 C-2.8825 10.07703125 -3.686875 10.05640625 -4.515625 10.03515625 C-7.01167385 9.80132004 -7.01167385 9.80132004 -8.078125 11.09765625 C-9.71285382 11.18465967 -11.35126555 11.20466688 -12.98828125 11.1953125 C-13.97763672 11.19208984 -14.96699219 11.18886719 -15.98632812 11.18554688 C-17.02724609 11.17716797 -18.06816406 11.16878906 -19.140625 11.16015625 C-20.18541016 11.15564453 -21.23019531 11.15113281 -22.30664062 11.14648438 C-24.8971916 11.13465538 -27.48763059 11.11817314 -30.078125 11.09765625 C-30.078125 10.76765625 -30.078125 10.43765625 -30.078125 10.09765625 C-23.148125 10.09765625 -16.218125 10.09765625 -9.078125 10.09765625 C-9.408125 7.12765625 -9.738125 4.15765625 -10.078125 1.09765625 C-6.42966495 0.18554124 -3.72110969 -0.01824073 0 0 Z " fill="#313131" transform="translate(277.078125,297.90234375)"/>
<path d="M0 0 C2 1 2 1 2.8515625 2.9609375 C3.10679687 3.75757813 3.36203125 4.55421875 3.625 5.375 C4.01558594 6.56222656 4.01558594 6.56222656 4.4140625 7.7734375 C5 10 5 10 5 13 C3.35 13 1.7 13 0 13 C0 13.99 0 14.98 0 16 C-5.61 16 -11.22 16 -17 16 C-17 15.67 -17 15.34 -17 15 C-11.72 15 -6.44 15 -1 15 C-1.66 13.246875 -2.32 11.49375 -3 9.6875 C-4.18506921 6.53965992 -5 4.37465686 -5 1 C-3.68 1.66 -2.36 2.32 -1 3 C-0.67 2.01 -0.34 1.02 0 0 Z " fill="#202020" transform="translate(222,231)"/>
<path d="M0 0 C0.53625 0.165 1.0725 0.33 1.625 0.5 C4.45886009 1.09660212 7.1119806 1.0656368 10 1 C9.34 1.66 8.68 2.32 8 3 C8.66 3 9.32 3 10 3 C10 3.66 10 4.32 10 5 C10.95169067 4.74875366 10.95169067 4.74875366 11.92260742 4.49243164 C16.06434891 3.82968729 20.0554323 3.98792023 24.23828125 4.12109375 C25.11904831 4.14470474 25.99981537 4.16831573 26.90727234 4.19264221 C29.70919169 4.26896706 32.51081266 4.35312486 35.3125 4.4375 C37.21678247 4.49075193 39.12107933 4.5434921 41.02539062 4.59570312 C45.68378125 4.72453983 50.34192 4.86040005 55 5 C55 5.33 55 5.66 55 6 C47.50703445 6.10125241 40.01424467 6.17140327 32.52075195 6.21972656 C29.97055468 6.23986697 27.42040372 6.26718097 24.87036133 6.30175781 C21.20903103 6.35016739 17.54831018 6.37294474 13.88671875 6.390625 C12.7428923 6.41127014 11.59906586 6.43191528 10.420578 6.45318604 C9.35970474 6.45348816 8.29883148 6.45379028 7.20581055 6.45410156 C5.80349434 6.46742523 5.80349434 6.46742523 4.37284851 6.48101807 C2 6 2 6 0.17463684 3.97161865 C-0.4068084 2.99566742 -0.4068084 2.99566742 -1 2 C-0.67 1.34 -0.34 0.68 0 0 Z " fill="#D2D2D2" transform="translate(217,411)"/>
<path d="M0 0 C0.99 0.33 1.98 0.66 3 1 C2.76458928 7.9446161 2.76458928 7.9446161 0.80859375 10.64453125 C-1.88300058 13.08312977 -3.76422196 13.9781687 -7.375 14.3125 C-8.24125 14.209375 -9.1075 14.10625 -10 14 C-10.33 12.68 -10.66 11.36 -11 10 C-9.865625 9.54625 -8.73125 9.0925 -7.5625 8.625 C-3.95278308 7.42904194 -3.95278308 7.42904194 -3 5 C-2.34 5 -1.68 5 -1 5 C-0.67 3.35 -0.34 1.7 0 0 Z " fill="#F7F7F7" transform="translate(377,391)"/>
<path d="M0 0 C8.22618125 0.54001745 16.38223015 0.6719173 24.625 0.5625 C25.12 1.5525 25.12 1.5525 25.625 2.5625 C12.095 2.5625 -1.435 2.5625 -15.375 2.5625 C-11.18176185 -1.63073815 -5.51741551 -0.40802339 0 0 Z " fill="#F2F2F2" transform="translate(262.375,407.4375)"/>
<path d="M0 0 C6.93 0.495 6.93 0.495 14 1 C14.66 2.65 15.32 4.3 16 6 C12.58860997 7.09651823 9.79344419 6.94215473 6.25 6.5625 C5.26515625 6.46066406 4.2803125 6.35882813 3.265625 6.25390625 C2.51796875 6.17011719 1.7703125 6.08632813 1 6 C0.67 4.02 0.34 2.04 0 0 Z " fill="#FAFAFA" transform="translate(224,368)"/>
<path d="M0 0 C5.28 0 10.56 0 16 0 C15.67 1.32 15.34 2.64 15 4 C15 3.01 15 2.02 15 1 C8.565 1.495 8.565 1.495 2 2 C2 2.66 2 3.32 2 4 C1.01 4.495 1.01 4.495 0 5 C-0.7281003 7.3127749 -0.7281003 7.3127749 -1.1875 10 C-1.36667969 10.9075 -1.54585938 11.815 -1.73046875 12.75 C-1.81941406 13.4925 -1.90835937 14.235 -2 15 C-0.18884044 16.81115956 2.61278227 16.38199448 5.0625 16.5625 C6.16722656 16.64628906 7.27195312 16.73007812 8.41015625 16.81640625 C9.26480469 16.87699219 10.11945313 16.93757813 11 17 C11 17.33 11 17.66 11 18 C5.72 18 0.44 18 -5 18 C-3.85440314 11.65515584 -2.43143813 5.96807541 0 0 Z " fill="#A4A4A4" transform="translate(369,275)"/>
<path d="M0 0 C0.88945312 0.05478516 1.77890625 0.10957031 2.6953125 0.16601562 C3.61570313 0.23884766 4.53609375 0.31167969 5.484375 0.38671875 C6.88816406 0.47856445 6.88816406 0.47856445 8.3203125 0.57226562 C10.6263838 0.72521933 12.93038033 0.89300925 15.234375 1.07421875 C15.234375 1.40421875 15.234375 1.73421875 15.234375 2.07421875 C10.284375 2.40421875 5.334375 2.73421875 0.234375 3.07421875 C6.504375 3.40421875 12.774375 3.73421875 19.234375 4.07421875 C19.234375 4.40421875 19.234375 4.73421875 19.234375 5.07421875 C14.94276453 5.13205717 10.65125355 5.16775995 6.359375 5.19921875 C5.13605469 5.21597656 3.91273438 5.23273438 2.65234375 5.25 C0.90244141 5.25966797 0.90244141 5.25966797 -0.8828125 5.26953125 C-1.96159668 5.28000488 -3.04038086 5.29047852 -4.15185547 5.30126953 C-6.765625 5.07421875 -6.765625 5.07421875 -8.765625 3.07421875 C-5.73044462 0.40777013 -4.02118351 -0.28354499 0 0 Z " fill="#BABABA" transform="translate(248.765625,410.92578125)"/>
<path d="M0 0 C0.99 0.495 0.99 0.495 2 1 C2.625 4.0625 2.625 4.0625 3 7 C3.99 7.33 4.98 7.66 6 8 C6.99 7.01 7.98 6.02 9 5 C9.99 8.63 10.98 12.26 12 16 C9.525 15.01 9.525 15.01 7 14 C6.01 14 5.02 14 4 14 C3.32968281 12.0429132 2.66385317 10.08428887 2 8.125 C1.62875 7.03445313 1.2575 5.94390625 0.875 4.8203125 C0 2 0 2 0 0 Z " fill="#1C1C1C" transform="translate(223,253)"/>
<path d="M0 0 C1.65 0.33 3.3 0.66 5 1 C5.33 3.31 5.66 5.62 6 8 C4.02 8.99 2.04 9.98 0 11 C-0.66 8.03 -1.32 5.06 -2 2 C-1.34 2 -0.68 2 0 2 C0 1.34 0 0.68 0 0 Z " fill="#121212" transform="translate(258,230)"/>
<path d="M0 0 C0.99 0 1.98 0 3 0 C3 0.66 3 1.32 3 2 C6.27315509 3.63657754 9.90622231 3.2430807 13.5078125 3.31640625 C14.34843231 3.33718735 15.18905212 3.35796844 16.05514526 3.37937927 C18.74501235 3.44485439 21.43497843 3.5037502 24.125 3.5625 C25.94662489 3.60568716 27.76823971 3.64930152 29.58984375 3.69335938 C34.05979394 3.80053368 38.52984386 3.90180685 43 4 C43 4.33 43 4.66 43 5 C28.81 5 14.62 5 0 5 C0 3.35 0 1.7 0 0 Z " fill="#F4F4F4" transform="translate(125,161)"/>
<path d="M0 0 C2.97 0 5.94 0 9 0 C9 0.99 9 1.98 9 3 C5.99686252 4.50156874 3.20932478 4.09281204 -0.125 4.0625 C-1.40632813 4.05347656 -2.68765625 4.04445313 -4.0078125 4.03515625 C-5.48894531 4.01775391 -5.48894531 4.01775391 -7 4 C-7 3.34 -7 2.68 -7 2 C-3.535 1.505 -3.535 1.505 0 1 C0 0.67 0 0.34 0 0 Z " fill="#C6C6C6" transform="translate(362,412)"/>
<path d="M0 0 C1.32630565 4.14470514 1.98384711 9.03230578 0 13 C-0.99 13 -1.98 13 -3 13 C-4.37024221 5.08304498 -4.37024221 5.08304498 -3 2 C-2.01 1.34 -1.02 0.68 0 0 Z " fill="#F6F6F6" transform="translate(223,387)"/>
<path d="M0 0 C-3.45547603 2.09534185 -6.29197531 2.30071628 -10.296875 2.4140625 C-11.50214844 2.45273437 -12.70742188 2.49140625 -13.94921875 2.53125 C-15.83060547 2.57765625 -15.83060547 2.57765625 -17.75 2.625 C-19.65458984 2.68300781 -19.65458984 2.68300781 -21.59765625 2.7421875 C-24.7316257 2.83644222 -27.86558949 2.92205166 -31 3 C-31 2.34 -31 1.68 -31 1 C-30.40985107 0.97494385 -29.81970215 0.9498877 -29.21166992 0.92407227 C-26.53673186 0.80799948 -23.8621362 0.68532428 -21.1875 0.5625 C-20.25873047 0.52318359 -19.32996094 0.48386719 -18.37304688 0.44335938 C-17.48037109 0.40146484 -16.58769531 0.35957031 -15.66796875 0.31640625 C-14.84578857 0.27974854 -14.0236084 0.24309082 -13.17651367 0.20532227 C-4.29016391 -0.632975 -4.29016391 -0.632975 0 0 Z " fill="#E8E8E8" transform="translate(391,416)"/>
<path d="M0 0 C2.88375157 2.88375157 4.31825682 5.01114165 4.5 9.0625 C4 13 4 13 2 15.5 C1.01 16.2425 1.01 16.2425 0 17 C0 14 0 14 1.0625 11.4375 C1.371875 10.633125 1.68125 9.82875 2 9 C1.67 8.34 1.34 7.68 1 7 C0.01 7 -0.98 7 -2 7 C-2 6.34 -2 5.68 -2 5 C-1.34 5 -0.68 5 0 5 C0 3.35 0 1.7 0 0 Z " fill="#EAEAEA" transform="translate(239,384)"/>
<path d="M0 0 C0.66 0 1.32 0 2 0 C4.08901197 3.39464446 4.34361606 6.04841529 4 10 C3.34 10.66 2.68 11.32 2 12 C1 9 1 9 2 6 C1.34 6 0.68 6 0 6 C-0.66 7.32 -1.32 8.64 -2 10 C-1.85950482 8.52031676 -1.71245174 7.04125484 -1.5625 5.5625 C-1.48128906 4.73878906 -1.40007812 3.91507812 -1.31640625 3.06640625 C-1 1 -1 1 0 0 Z " fill="#E3E3E3" transform="translate(377,386)"/>
<path d="M0 0 C3 1 3 1 4 3 C11.92 3.33 19.84 3.66 28 4 C28 4.33 28 4.66 28 5 C19.09 5 10.18 5 1 5 C0.67 3.35 0.34 1.7 0 0 Z " fill="#ECECEC" transform="translate(268,264)"/>
<path d="M0 0 C0.33 1.32 0.66 2.64 1 4 C2.94074861 3.72382467 2.94074861 3.72382467 5 3 C5.66 2.01 6.32 1.02 7 0 C7 2.97 7 5.94 7 9 C6.67 8.34 6.34 7.68 6 7 C4.02 7.66 2.04 8.32 0 9 C0 6.03 0 3.06 0 0 Z " fill="#343434" transform="translate(297,299)"/>
<path d="M0 0 C2.475 0.495 2.475 0.495 5 1 C5.33 2.65 5.66 4.3 6 6 C5.34 6 4.68 6 4 6 C4 6.66 4 7.32 4 8 C3.01 8 2.02 8 1 8 C-0.35439668 5.29120665 -0.06501451 2.99066732 0 0 Z " fill="#F1F1F1" transform="translate(185,176)"/>
<path d="M0 0 C1.5778125 0.4021875 1.5778125 0.4021875 3.1875 0.8125 C2.1975 1.3075 2.1975 1.3075 1.1875 1.8125 C0.8575 2.4725 0.5275 3.1325 0.1875 3.8125 C-0.8025 2.8225 -1.7925 1.8325 -2.8125 0.8125 C-2.8125 1.4725 -2.8125 2.1325 -2.8125 2.8125 C-4.1325 3.1425 -5.4525 3.4725 -6.8125 3.8125 C-6.4825 5.7925 -6.1525 7.7725 -5.8125 9.8125 C-6.8025 10.3075 -6.8025 10.3075 -7.8125 10.8125 C-8.625 8.125 -8.625 8.125 -8.8125 4.8125 C-6.06821642 0.78183349 -4.9464074 -0.24326594 0 0 Z " fill="#272727" transform="translate(231.8125,386.1875)"/>
<path d="M0 0 C2.475 0.99 2.475 0.99 5 2 C4.67 3.98 4.34 5.96 4 8 C3.34 7.01 2.68 6.02 2 5 C0.68 5.99 -0.64 6.98 -2 8 C-2.33 7.01 -2.66 6.02 -3 5 C-1.5625 2.3125 -1.5625 2.3125 0 0 Z " fill="#181818" transform="translate(215,381)"/>
<path d="M0 0 C0.33 0 0.66 0 1 0 C1.31523361 4.01922848 1.38044558 6.35183346 -0.6875 9.875 C-3.21360261 12.19628348 -4.62765029 12.71897086 -8 13 C-7.02471263 11.66382648 -6.04466681 10.3311249 -5.0625 9 C-4.51722656 8.2575 -3.97195313 7.515 -3.41015625 6.75 C-2.94480469 6.1725 -2.47945313 5.595 -2 5 C-1.67 5 -1.34 5 -1 5 C-0.67 3.35 -0.34 1.7 0 0 Z " fill="#131313" transform="translate(383,354)"/>
<path d="M0 0 C2.97 0.495 2.97 0.495 6 1 C5.67 2.65 5.34 4.3 5 6 C2.5625 5.625 2.5625 5.625 0 5 C-0.33 4.34 -0.66 3.68 -1 3 C-0.67 2.01 -0.34 1.02 0 0 Z " fill="#060606" transform="translate(354,401)"/>
<path d="M0 0 C2.12508244 3.18762365 2.5020163 5.26512223 3 9 C1.35 8.67 -0.3 8.34 -2 8 C-2.20086443 4.28400809 -2.1519437 3.22791555 0 0 Z " fill="#151515" transform="translate(224,235)"/>
<path d="M0 0 C0.33 0 0.66 0 1 0 C1.14695313 1.19496094 1.14695313 1.19496094 1.296875 2.4140625 C2.17364593 8.62704273 2.94805192 13.13766231 7 18 C5.35 17.67 3.7 17.34 2 17 C-0.01167675 11.21642935 -0.22084624 6.09781001 0 0 Z " fill="#B4B4B4" transform="translate(211,390)"/>
<path d="M0 0 C2.91517292 1.07401108 4.77810176 1.77810176 7 4 C3.84937642 5.01270044 2.14957453 4.87488181 -1 4 C-3.66196472 3.61606278 -6.32819426 3.31171067 -9 3 C-9 2.67 -9 2.34 -9 2 C-6.94921875 1.77213542 -4.8984375 1.54427083 -2.84765625 1.31640625 C-0.98859771 1.18113386 -0.98859771 1.18113386 0 0 Z " fill="#E6E6E6" transform="translate(217,408)"/>
<path d="M0 0 C2.475 0.495 2.475 0.495 5 1 C5 1.99 5 2.98 5 4 C6.32 4.33 7.64 4.66 9 5 C9 5.33 9 5.66 9 6 C6.36 6 3.72 6 1 6 C0.67 4.02 0.34 2.04 0 0 Z " fill="#F2F2F2" transform="translate(224,368)"/>
<path d="M0 0 C0.66 0.99 1.32 1.98 2 3 C1.38242027 5.34680297 0.7166207 7.68152126 0 10 C0.33 10.66 0.66 11.32 1 12 C0.01 12 -0.98 12 -2 12 C-2.33 12.99 -2.66 13.98 -3 15 C-2.44854729 9.76119922 -1.57077907 5.02649303 0 0 Z " fill="#3B3B3B" transform="translate(367,254)"/>
<path d="M0 0 C1.65 0.33 3.3 0.66 5 1 C4.67 2.32 4.34 3.64 4 5 C0 5 0 5 -2 4 C-1.34 2.68 -0.68 1.36 0 0 Z " fill="#040404" transform="translate(378,402)"/>
<path d="M0 0 C2.64 0.66 5.28 1.32 8 2 C7.01 3.485 7.01 3.485 6 5 C3.0625 4.625 3.0625 4.625 0 4 C-0.33 3.34 -0.66 2.68 -1 2 C-0.67 1.34 -0.34 0.68 0 0 Z " fill="#D2D2D2" transform="translate(374,411)"/>
<path d="M0 0 C0.66 0 1.32 0 2 0 C2.33 2.97 2.66 5.94 3 9 C2.01 9.66 1.02 10.32 0 11 C-1.125 6.25 -1.125 6.25 0 4 C0 2.68 0 1.36 0 0 Z " fill="#F5F5F5" transform="translate(209,395)"/>
<path d="M0 0 C0.99 0.33 1.98 0.66 3 1 C3.33 1.99 3.66 2.98 4 4 C-0.96073422 5.32286246 -5.91111512 5.08893197 -11 5 C-11 4.67 -11 4.34 -11 4 C-5.555 3.505 -5.555 3.505 0 3 C0 2.01 0 1.02 0 0 Z " fill="#D9D9D9" transform="translate(371,412)"/>
<path d="M0 0 C0.66 0 1.32 0 2 0 C2.25 5.625 2.25 5.625 0 9 C-0.66 9 -1.32 9 -2 9 C-2.33 7.35 -2.66 5.7 -3 4 C-2.01 3.67 -1.02 3.34 0 3 C0 2.01 0 1.02 0 0 Z " fill="#0C0C0C" transform="translate(373,390)"/>
<path d="M0 0 C0.66 0.99 1.32 1.98 2 3 C1.125 5.6875 1.125 5.6875 0 8 C-0.99 7.67 -1.98 7.34 -3 7 C-2.625 4.0625 -2.625 4.0625 -2 1 C-1.34 0.67 -0.68 0.34 0 0 Z " fill="#FAFAFA" transform="translate(240,390)"/>
<path d="M0 0 C0.53625 0.165 1.0725 0.33 1.625 0.5 C4.45886009 1.09660212 7.1119806 1.0656368 10 1 C7 3 7 3 3 3 C3 3.66 3 4.32 3 5 C1.68 4.34 0.36 3.68 -1 3 C-0.67 2.01 -0.34 1.02 0 0 Z " fill="#D1D1D1" transform="translate(217,411)"/>
<path d="M0 0 C0.66 0.33 1.32 0.66 2 1 C2.75 3.875 2.75 3.875 3 7 C2.01 8.485 2.01 8.485 1 10 C-1.56687367 6.1496895 -0.83288724 4.41430237 0 0 Z " fill="#F4F4F4" transform="translate(189,184)"/>
<path d="M0 0 C0.99 0 1.98 0 3 0 C3 0.66 3 1.32 3 2 C5.64 2.66 8.28 3.32 11 4 C11 4.33 11 4.66 11 5 C7.37 5 3.74 5 0 5 C0 3.35 0 1.7 0 0 Z " fill="#EBEBEB" transform="translate(125,161)"/>
<path d="M0 0 C0.66 0.33 1.32 0.66 2 1 C0.9375 3.4375 0.9375 3.4375 -1 6 C-4.6875 6.8125 -4.6875 6.8125 -8 7 C-7.236875 6.401875 -6.47375 5.80375 -5.6875 5.1875 C-3.6516425 3.53040668 -1.8021721 1.89702326 0 0 Z " fill="#F3F3F3" transform="translate(383,405)"/>
<path d="M0 0 C1.32 0.99 2.64 1.98 4 3 C2.35 3.33 0.7 3.66 -1 4 C-0.67 2.68 -0.34 1.36 0 0 Z M-2 4 C-1.01 4.99 -0.02 5.98 1 7 C-0.32 7 -1.64 7 -3 7 C-2.67 6.01 -2.34 5.02 -2 4 Z " fill="#1F1F1F" transform="translate(222,402)"/>
<path d="M0 0 C0.33 0 0.66 0 1 0 C1.49230769 7.38461538 1.49230769 7.38461538 -1 10.5 C-1.66 10.995 -2.32 11.49 -3 12 C-3 9 -3 9 -1 6 C-0.60986284 4.0103005 -0.26797351 2.00980131 0 0 Z " fill="#D3D3D3" transform="translate(242,389)"/>
<path d="M0 0 C1.61363928 3.22727857 0.08456242 5.68923051 -1 9 C-1.62469505 10.35350594 -2.2716331 11.69934483 -3 13 C-3.27429625 7.60550707 -3.36055646 4.48074195 0 0 Z " fill="#C4C4C4" transform="translate(221,384)"/>
<path d="M0 0 C1.98 0.99 1.98 0.99 4 2 C4.125 4.875 4.125 4.875 4 8 C3.34 8.66 2.68 9.32 2 10 C1.34 6.7 0.68 3.4 0 0 Z " fill="#0D0D0D" transform="translate(337,226)"/>
<path d="M0 0 C-0.33 0.66 -0.66 1.32 -1 2 C-2.32 2 -3.64 2 -5 2 C-5.66 2.66 -6.32 3.32 -7 4 C-7.66 2.68 -8.32 1.36 -9 0 C-5.52176885 -1.15941038 -3.54104422 -0.70820884 0 0 Z " fill="#141414" transform="translate(384,381)"/>
<path d="M0 0 C1.67542976 0.28604898 3.34385343 0.61781233 5 1 C4.67 1.99 4.34 2.98 4 4 C2.35 4 0.7 4 -1 4 C-1 1 -1 1 0 0 Z M2 1 C3 3 3 3 3 3 Z " fill="#F5F5F5" transform="translate(378,344)"/>
<path d="M0 0 C2.89932357 2.39509338 3.50168276 4.31245243 4 8 C3.01 7.34 2.02 6.68 1 6 C0.01 6.495 0.01 6.495 -1 7 C-0.67 4.69 -0.34 2.38 0 0 Z " fill="#F4F4F4" transform="translate(170,209)"/>
<path d="M0 0 C1.32 0.66 2.64 1.32 4 2 C2.69593116 4.01920337 1.36176581 6.01924973 0 8 C-0.33 8 -0.66 8 -1 8 C-1.125 2.25 -1.125 2.25 0 0 Z " fill="#242424" transform="translate(116,172)"/>
<path d="M0 0 C0.6875 2.0625 0.6875 2.0625 1 4 C-0.32 4.33 -1.64 4.66 -3 5 C-3 4.01 -3 3.02 -3 2 C-3.99 1.34 -4.98 0.68 -6 0 C-3 -1 -3 -1 0 0 Z " fill="#ECECEC" transform="translate(374,400)"/>
<path d="M0 0 C0.66 1.32 1.32 2.64 2 4 C1.34 4.66 0.68 5.32 0 6 C-0.66 5.67 -1.32 5.34 -2 5 C-2 4.34 -2 3.68 -2 3 C-2.66 2.67 -3.32 2.34 -4 2 C-2.68 1.34 -1.36 0.68 0 0 Z " fill="#010101" transform="translate(220,379)"/>
<path d="M0 0 C0.99 0 1.98 0 3 0 C3.33 1.98 3.66 3.96 4 6 C1.525 5.01 1.525 5.01 -1 4 C-0.67 2.68 -0.34 1.36 0 0 Z " fill="#EFEFEF" transform="translate(162,188)"/>
<path d="M0 0 C2 2 2 2 2.125 5.125 C2.08375 6.07375 2.0425 7.0225 2 8 C1.67 7.01 1.34 6.02 1 5 C0.34 5 -0.32 5 -1 5 C-1.33 3.68 -1.66 2.36 -2 1 C-1.34 0.67 -0.68 0.34 0 0 Z " fill="#0E0E0E" transform="translate(332,285)"/>
<path d="M0 0 C0.33 1.32 0.66 2.64 1 4 C-0.32 4 -1.64 4 -3 4 C-3.33 3.01 -3.66 2.02 -4 1 C-2 0 -2 0 0 0 Z " fill="#F5F5F5" transform="translate(198,207)"/>
<path d="M0 0 C1.9375 0.8125 1.9375 0.8125 4 2 C4.33 2.99 4.66 3.98 5 5 C2.83125748 4.49396008 1.00032373 4.00016187 -1 3 C-0.67 2.01 -0.34 1.02 0 0 Z " fill="#EBEBEB" transform="translate(117,185)"/>
</svg>
